<svg width="32.0" height="32.0" xmlns="http://www.w3.org/2000/svg"><path fill="#807760ff" d="M1,31 L1,27 L9,23 C10,22.5 10.75,22.25 11.5,22.25 C12.25,22.25 13,22.5 14,23 C18,25 26,29 30,29 L31,29 L31,31 Z"/><path fill="#9c916dff" d="M15,22.5 L18,21 C19,20.5 19.75,20.25 20.5,20.25 C21.25,20.25 22,20.5 23,21 L31,25 L31,28 L30,28 C26,28 19,24.5 15,22.5 Z"/><path fill="#b37c52ff" d="M3.733500838578397,24.633249580710796 L9,22 C10,21.5 10.75,21.25 11.5,21.25 C12.25,21.25 13,21.5 14,22 L18,20 C19,19.5 19.75,19.25 20.5,19.25 C21.25,19.25 22,19.5 23,20  L29.21044369139217,23.105221845696086 A15,15 0 1 0 3.733500838578397,24.633249580710796 Z"/><path transform="rotate(-26.56505117707799,16,16) scale(0.75,0.75) translate(4.0,2.0)" fill="#403830ff" d="M5,16 A120.56666666666666,120.56666666666666 0 0 0 22,16 A 120.56666666666666,120.56666666666666 0 0 0 5,16 ZM3,14.5 L10,14.5 C12,14.5 14.3,14.2 16.5,13.5 C18,14 22,15 24.5,15 C26,15 27.5,15 28.5,14.5 C30,14.6 32,15.3 33,16 C30,17 27,17.5 24,17.5 L24.5,16.5 L23,18 C17,18 10,17.5 3,17.5 ZM17.3,13.2 C19.5,12.5 21,12.5 22.5,12.5 C25,12.5 27.5,13.5 28.1,14.1 C27.4,14.5 26,14.5 25,14.5 C22.5,14.5 18.8,13.7 17.3,13.2 ZM3.5,14 L5.5,9 L8.5,9 L10.5,14 ZM2.5,17.5 A6.5,6.5 0 0 1 0,17 L0,15 A6.5,6.5 0 0 1 2.5,14.5 Z"/></svg>